<svg width="20" height="16" viewBox="0 0 20 16" fill="none" xmlns="http://www.w3.org/2000/svg">
<g clip-path="url(#clip0_130_94)">
<rect x="0.200012" y="1.6001" width="15.6" height="14.4" fill="#6E6E6E"/>
<rect x="3" width="1.6" height="1.6" fill="#6E6E6E"/>
<rect x="11.6" width="1.6" height="1.6" fill="#6E6E6E"/>
<rect x="1.40002" y="4.59961" width="13.2" height="10.2" rx="3" fill="#F7F7F7"/>
<rect x="5.83331" y="6" width="1.3" height="1.30587" fill="#6E6E6E"/>
<rect x="11.9" y="6" width="1.3" height="1.30587" fill="#6E6E6E"/>
<rect x="8.86664" y="6" width="1.3" height="1.30587" fill="#6E6E6E"/>
<rect x="8.86664" y="9.04688" width="1.3" height="1.30587" fill="#6E6E6E"/>
<rect x="2.80005" y="12.0942" width="1.3" height="1.30587" fill="#6E6E6E"/>
<rect x="8.86664" y="12.0942" width="1.3" height="1.30587" fill="#6E6E6E"/>
<rect x="5.83331" y="12.0942" width="1.3" height="1.30587" fill="#6E6E6E"/>
<rect x="2.80005" y="9.04688" width="1.3" height="1.30587" fill="#6E6E6E"/>
<path d="M11.9001 9.04688H13.2001V10.3527H11.9001V9.04688Z" fill="#6E6E6E"/>
<rect x="5.83331" y="9.04688" width="1.3" height="1.30587" fill="#6E6E6E"/>
</g>
<defs>
<clipPath id="clip0_130_94">
<rect width="20" height="16" fill="white"/>
</clipPath>
</defs>
</svg>
