<svg width="16" height="13" viewBox="0 0 16 13" fill="none" xmlns="http://www.w3.org/2000/svg">
<path d="M11.5545 2.43152C11.5482 2.34186 11.4788 2.27106 11.3906 2.26501L7.24118 2.00064C7.19037 1.99602 7.14273 2.01665 7.10629 2.05259L1.03561 8.21727C0.967296 8.28665 0.967296 8.3998 1.03561 8.46882L5.44499 12.948C5.47791 12.9819 5.52241 13 5.56901 13C5.6156 13 5.66009 12.9812 5.69302 12.948L11.7637 6.7823C11.8001 6.74566 11.8176 6.69656 11.8149 6.64496L11.5545 2.43152ZM10.3466 4.7809C10.0074 5.12497 9.41606 5.12497 9.07733 4.7809C8.72729 4.4251 8.72729 3.84691 9.07733 3.49182C9.2469 3.32032 9.47211 3.22497 9.71215 3.22497C9.95178 3.22497 10.1763 3.32032 10.3466 3.49182C10.6962 3.84727 10.6962 4.42545 10.3466 4.7809Z" fill="#6E6E6E"/>
</svg>
