<svg width="18" height="18" viewBox="0 0 18 18" fill="none" xmlns="http://www.w3.org/2000/svg">
<path d="M16.8 4.16222C16.2258 4.41722 15.609 4.58882 14.9616 4.66622C15.6228 4.27022 16.1298 3.64322 16.3686 2.89562C15.7506 3.26222 15.0654 3.52862 14.3358 3.67262C13.752 3.05042 12.9204 2.66162 12 2.66162C10.2324 2.66162 8.7996 4.09502 8.7996 5.86202C8.7996 6.11282 8.8284 6.35762 8.8824 6.59102C6.2226 6.45782 3.8646 5.18342 2.2854 3.24662C2.0106 3.71942 1.8528 4.26902 1.8528 4.85642C1.8528 5.96642 2.4174 6.94622 3.276 7.51982C2.7516 7.50302 2.2578 7.35902 1.8264 7.11962C1.8264 7.13342 1.8264 7.14602 1.8264 7.15982C1.8264 8.71082 2.9292 10.0044 4.3938 10.2978C4.1256 10.371 3.8424 10.41 3.5502 10.41C3.3444 10.41 3.1434 10.3896 2.9484 10.353C3.3558 11.6244 4.5378 12.5502 5.9382 12.576C4.8432 13.4346 3.4632 13.9464 1.9632 13.9464C1.7052 13.9464 1.4502 13.9314 1.1994 13.9014C2.616 14.8092 4.2978 15.339 6.1056 15.339C11.9928 15.339 15.2112 10.4622 15.2112 6.23282C15.2112 6.09422 15.2082 5.95622 15.2022 5.81882C15.828 5.36702 16.371 4.80362 16.8 4.16222Z" fill="#656565"/>
</svg>
